<svg width="32" height="28" viewBox="0 0 32 28" fill="none" xmlns="http://www.w3.org/2000/svg">
<path opacity="0.4" d="M31.6437 24.0625L18.3125 1.3125C17.2918 -0.4375 14.7162 -0.4375 13.6887 1.3125L0.363721 24.0625C-0.661904 25.8062 0.615533 28 2.67122 28H29.3337C31.3812 28 32.6625 25.8125 31.6437 24.0625ZM14.5 8.5C14.5 7.67188 15.1718 7 16 7C16.8281 7 17.5 7.675 17.5 8.5V16.5C17.5 17.3281 16.8281 18 16.0562 18C15.2843 18 14.5 17.3312 14.5 16.5V8.5ZM16 24C14.915 24 14.035 23.12 14.035 22.035C14.035 20.95 14.9143 20.07 16 20.07C17.0856 20.07 17.965 20.95 17.965 22.035C17.9625 23.1187 17.0875 24 16 24Z" fill="#BC0000"/>
</svg>
