<svg width="31" height="31" viewBox="0 0 31 31" fill="none" xmlns="http://www.w3.org/2000/svg">
<path opacity="0.4" d="M15.6061 0.814819C7.0364 0.814819 0.0909424 7.44676 0.0909424 15.6296C0.0909424 23.8125 7.0364 30.4444 15.6061 30.4444C18.8709 30.4444 21.897 29.4769 24.394 27.8322C23.7576 26.6308 23.3637 25.3924 23.3637 24.0035C23.3637 21.2998 24.7346 19.4572 26.0606 17.6782C27.1831 16.1701 28.3437 14.6094 29.1073 12.195C29.3051 11.57 29.7 11.0486 30.2134 10.6782C28.0788 4.93288 22.3516 0.814819 15.6061 0.814819ZM11.7273 12.8519C11.7273 13.3611 11.2909 13.7778 10.7576 13.7778H8.81822C8.28488 13.7778 7.84852 13.3611 7.84852 12.8519V9.14815C7.84852 8.63889 8.28488 8.22223 8.81822 8.22223H10.7576C11.2909 8.22223 11.7273 8.63889 11.7273 9.14815V12.8519ZM17.5455 12.8519C17.5455 13.3611 17.1091 13.7778 16.5758 13.7778H14.6364C14.1031 13.7778 13.6667 13.3611 13.6667 12.8519V9.14815C13.6667 8.63889 14.1031 8.22223 14.6364 8.22223H16.5758C17.1091 8.22223 17.5455 8.63889 17.5455 9.14815V12.8519ZM23.3637 12.8519C23.3637 13.3611 22.9273 13.7778 22.394 13.7778H20.4546C19.9212 13.7778 19.4849 13.3611 19.4849 12.8519V9.14815C19.4849 8.63889 19.9212 8.22223 20.4546 8.22223H22.394C22.9273 8.22223 23.3637 8.63889 23.3637 9.14815V12.8519Z" fill="white"/>
</svg>
