<?xml version="1.0" encoding="utf-8"?>
<!-- Generator: Adobe Illustrator 27.1.1, SVG Export Plug-In . SVG Version: 6.00 Build 0)  -->
<svg version="1.1" id="Layer_1" xmlns="http://www.w3.org/2000/svg" xmlns:xlink="http://www.w3.org/1999/xlink" x="0px" y="0px"
	 viewBox="0 0 640 512" style="enable-background:new 0 0 640 512;" xml:space="preserve">
<style type="text/css">
	.st0{fill:#FFFFFF;}
	.st1{opacity:0.4;fill:#FFFFFF;enable-background:new    ;}
</style>
<path class="st0" d="M546.6,205.8c-5-18.1-31.5-18.8-37.2,0C479.7,304.3,416,331.2,416,400.7c0,61.5,50.1,111.3,112,111.3
	s112-49.8,112-111.3C640,330.8,576.5,304.9,546.6,205.8z"/>
<path class="st1" d="M256,0C114.6,0,0,114.6,0,256s114.6,256,256,256c53.9,0,103.8-16.7,145-45.1c-10.5-20.8-17-42.2-17-66.2
	c0-46.7,22.6-78.6,44.5-109.3c18.5-26.1,37.7-53,50.3-94.8c3.3-10.8,9.8-19.8,18.2-26.2C461.8,71.2,367.3,0,256,0z M192,208
	c0,8.8-7.2,16-16,16h-32c-8.8,0-16-7.2-16-16v-64c0-8.8,7.2-16,16-16h32c8.8,0,16,7.2,16,16V208z M288,208c0,8.8-7.2,16-16,16h-32
	c-8.8,0-16-7.2-16-16v-64c0-8.8,7.2-16,16-16h32c8.8,0,16,7.2,16,16V208z M384,208c0,8.8-7.2,16-16,16h-32c-8.8,0-16-7.2-16-16v-64
	c0-8.8,7.2-16,16-16h32c8.8,0,16,7.2,16,16V208z"/>
</svg>
