<svg width="21" height="20" viewBox="0 0 21 20" fill="none" xmlns="http://www.w3.org/2000/svg">
<path d="M20.8624 9.50817L10.9649 1.04915C10.6938 0.852431 10.3548 0.852431 10.0836 1.04915L0.186119 9.50817C0.118328 9.57374 0.0505371 9.63932 0.0505371 9.77046V19.7377C0.0505371 19.9344 0.18612 20.0655 0.389493 20.0655H7.37199C7.57537 20.0655 7.71095 19.9344 7.71095 19.7377V13.377C7.71095 12.6557 8.32107 12.0655 9.06677 12.0655H11.9818C12.7275 12.0655 13.3376 12.6557 13.3376 13.377V19.7377C13.3376 19.9344 13.4732 20.0655 13.6766 20.0655H20.6591C20.8624 20.0655 20.998 19.9344 20.998 19.7377V9.77046C20.9302 9.63932 20.9302 9.57374 20.8624 9.50817Z" fill="#BBBBBB"/>
</svg>
